# xmcd
#
# Track frame offsets:
#        150
#        11251
#        18507
#        25649
#        37477
#        46701
#        53693
#        64016
#        79427
#        91613
#        110445
#        118071
#        129807
#        137616
#        143812
#        155971
#        166025
#        184883
#        205832
#        214869
#        230030
#        244867
#        275976
#
# Disc length: 3780 seconds
#
# Revision: 6
# Processed by: cddbd v1.5.2PL0 Copyright (c) Steve Scherf et al.
# Submitted via: ExactAudioCopy v1.0b2
#
DISCID=430ec217
DTITLE=Daft Punk - Tron: Legacy
DYEAR=2010
DGENRE=Soundtrack
TTITLE0=Overture
TTITLE1=The Grid
TTITLE2=The Son Of Flynn
TTITLE3=Recognizer
TTITLE4=Armory
TTITLE5=Arena
TTITLE6=Rinzler
TTITLE7=The Game Has Changed
TTITLE8=Outlands
TTITLE9=Adagio For TRON
TTITLE10=Nocturne
TTITLE11=End Of Line
TTITLE12=Derezzed
TTITLE13=Fall
TTITLE14=Solar Sailer
TTITLE15=Rectifier
TTITLE16=Disc Wars
TTITLE17=C.L.U.
TTITLE18=Arrival
TTITLE19=Flynn Lives
TTITLE20=TRON Legacy (End Titles)
TTITLE21=Finale
TTITLE22=Data
EXTD=
EXTT0=
EXTT1=
EXTT2=
EXTT3=
EXTT4=
EXTT5=
EXTT6=
EXTT7=
EXTT8=
EXTT9=
EXTT10=
EXTT11=
EXTT12=
EXTT13=
EXTT14=
EXTT15=
EXTT16=
EXTT17=
EXTT18=
EXTT19=
EXTT20=
EXTT21=
EXTT22=
PLAYORDER=
